{
  "accessors": [
    {
      "bufferView": 2,
      "componentType": 5126,
      "count": 3524,
      "max": [
        10.831570625305176,
        2.878093957901001,
        40.811119079589844
      ],
      "min": [
        -9.583313941955566,
        -2.875795602798462,
        -41.89334487915039
      ],
      "type": "VEC3"
    },
    {
      "bufferView": 2,
      "byteOffset": 42288,
      "componentType": 5126,
      "count": 3524,
      "max": [
        1.0,
        1.0,
        1.0
      ],
      "min": [
        -1.0,
        -1.0,
        -1.0
      ],
      "type": "VEC3"
    },
    {
      "bufferView": 3,
      "componentType": 5126,
      "count": 3524,
      "max": [
        1.0,
        1.0,
        0.9999993443489075,
        1.0
      ],
      "min": [
        -1.0,
        -1.0,
        -0.9998508095741272,
        -1.0
      ],
      "type": "VEC4"
    },
    {
      "bufferView": 3,
      "byteOffset": 56384,
      "componentType": 5126,
      "count": 3524,
      "max": [
        1.0,
        1.0,
        1.0,
        1.0
      ],
      "min": [
        0.0,
        0.0,
        0.0,
        0.0
      ],
      "type": "VEC4"
    },
    {
      "bufferView": 1,
      "componentType": 5126,
      "count": 3524,
      "max": [
        0.9509398341178894,
        0.9930641055107117
      ],
      "min": [
        0.042840562760829926,
        0.005232903640717268
      ],
      "type": "VEC2"
    },
    {
      "bufferView": 0,
      "componentType": 5125,
      "count": 15342,
      "type": "SCALAR"
    }
  ],
  "asset": {
    "extras": {
      "author": "Yogensia (https://sketchfab.com/yogensia)",
      "license": "CC-BY-NC-SA-4.0 (http://creativecommons.org/licenses/by-nc-sa/4.0/)",
      "source": "https://sketchfab.com/3d-models/master-sword-legend-of-zelda-fan-art-1e6d1805959b4ed3b7ad92fdee480ef6",
      "title": "Master Sword (Legend of Zelda fan art)"
    },
    "generator": "Sketchfab-12.67.0",
    "version": "2.0"
  },
  "bufferViews": [
    {
      "buffer": 0,
      "byteLength": 61368,
      "name": "floatBufferViews",
      "target": 34963
    },
    {
      "buffer": 0,
      "byteLength": 28192,
      "byteOffset": 61368,
      "byteStride": 8,
      "name": "floatBufferViews",
      "target": 34962
    },
    {
      "buffer": 0,
      "byteLength": 84576,
      "byteOffset": 89560,
      "byteStride": 12,
      "name": "floatBufferViews",
      "target": 34962
    },
    {
      "buffer": 0,
      "byteLength": 112768,
      "byteOffset": 174136,
      "byteStride": 16,
      "name": "floatBufferViews",
      "target": 34962
    }
  ],
  "buffers": [
    {
      "byteLength": 286904,
      "uri": "scene.bin"
    }
  ],
  "extensionsRequired": [
    "KHR_materials_pbrSpecularGlossiness"
  ],
  "extensionsUsed": [
    "KHR_materials_pbrSpecularGlossiness"
  ],
  "images": [
    {
      "uri": "textures/MasterSword_diffuse.png"
    },
    {
      "uri": "textures/MasterSword_specularGlossiness.png"
    },
    {
      "uri": "textures/MasterSword_normal.png"
    },
    {
      "uri": "textures/MasterSword_occlusion.png"
    }
  ],
  "materials": [
    {
      "extensions": {
        "KHR_materials_pbrSpecularGlossiness": {
          "diffuseFactor": [
            1.0,
            1.0,
            1.0,
            1.0
          ],
          "diffuseTexture": {
            "index": 0
          },
          "glossinessFactor": 0.9712271341463415,
          "specularFactor": [
            1.0,
            1.0,
            1.0
          ],
          "specularGlossinessTexture": {
            "index": 1
          }
        }
      },
      "name": "MasterSword",
      "normalTexture": {
        "index": 2
      },
      "occlusionTexture": {
        "index": 3
      }
    }
  ],
  "meshes": [
    {
      "name": "MasterSword_MasterSword_0",
      "primitives": [
        {
          "attributes": {
            "COLOR_0": 3,
            "NORMAL": 1,
            "POSITION": 0,
            "TANGENT": 2,
            "TEXCOORD_0": 4
          },
          "indices": 5,
          "material": 0,
          "mode": 4
        }
      ]
    }
  ],
  "nodes": [
    {
      "children": [
        1
      ],
      "matrix": [
        0.3546257019042969,
        -0.7537694573402404,
        -0.5532379746437075,
        0.0,
        -0.17608866095542908,
        0.5272648930549624,
        -0.8312547802925109,
        0.0,
        0.918277382850647,
        0.39220327138900757,
        0.05425143614411363,
        0.0,
        0.00011721211922122166,
        -0.0005367858102545142,
        -0.00019337462435942154,
        1.0
      ],
      "name": "Sketchfab_model"
    },
    {
      "children": [
        2
      ],
      "matrix": [
        1.0,
        0.0,
        0.0,
        0.0,
        0.0,
        0.0,
        1.0,
        0.0,
        0.0,
        -1.0,
        0.0,
        0.0,
        0.0,
        0.0,
        0.0,
        1.0
      ],
      "name": "63c5eb5fdf9a4c6a85ec63255a8c984a.fbx"
    },
    {
      "children": [
        3
      ],
      "name": "RootNode"
    },
    {
      "children": [
        4
      ],
      "matrix": [
        1.0,
        0.0,
        0.0,
        0.0,
        0.0,
        2.220446049250313e-16,
        -1.0,
        0.0,
        0.0,
        1.0,
        2.220446049250313e-16,
        0.0,
        0.0,
        0.0,
        -0.0011491775512695313,
        1.0
      ],
      "name": "MasterSword"
    },
    {
      "children": [
        5
      ],
      "matrix": [
        1.0,
        0.0,
        -0.0,
        0.0,
        0.0,
        1.0,
        0.0,
        0.0,
        0.0,
        0.0,
        1.0,
        0.0,
        -0.6241264343261719,
        -0.0011491775512695313,
        0.5411148071289063,
        1.0
      ],
      "name": "Object_4"
    },
    {
      "mesh": 0,
      "name": "MasterSword_MasterSword_0"
    }
  ],
  "samplers": [
    {
      "magFilter": 9729,
      "minFilter": 9987,
      "wrapS": 10497,
      "wrapT": 10497
    }
  ],
  "scene": 0,
  "scenes": [
    {
      "name": "Sketchfab_Scene",
      "nodes": [
        0
      ]
    }
  ],
  "textures": [
    {
      "sampler": 0,
      "source": 0
    },
    {
      "sampler": 0,
      "source": 1
    },
    {
      "sampler": 0,
      "source": 2
    },
    {
      "sampler": 0,
      "source": 3
    }
  ]
}
